<?xml version="1.0" encoding="UTF-8"?>
<svg version="1.1" xmlns="http://www.w3.org/2000/svg" width="512" height="512">
<path d="M0 0 C1.01790619 0.00215515 2.03581238 0.0043103 3.08456421 0.00653076 C17.69363523 0.05620146 32.02575853 0.30709809 46.375 3.3125 C47.34985352 3.51117676 48.32470703 3.70985352 49.32910156 3.91455078 C97.7109774 14.03517194 141.69928269 35.9516877 177.375 70.3125 C178.3640332 71.26068604 178.3640332 71.26068604 179.37304688 72.22802734 C188.86130305 81.37247479 197.6012044 90.66984009 205.375 101.3125 C206.23306152 102.46355017 207.09113451 103.61459177 207.94921875 104.765625 C213.98736829 112.95680614 219.34595521 121.47054105 224.375 130.3125 C224.73948242 130.94430176 225.10396484 131.57610352 225.47949219 132.22705078 C247.08534998 169.97532572 256.85198095 212.74189997 256.6875 255.9375 C256.68534485 256.95540619 256.6831897 257.97331238 256.68096924 259.02206421 C256.63129854 273.63113523 256.38040191 287.96325853 253.375 302.3125 C253.07698486 303.77478027 253.07698486 303.77478027 252.77294922 305.26660156 C242.65232806 353.6484774 220.7358123 397.63678269 186.375 433.3125 C185.74287598 433.97185547 185.11075195 434.63121094 184.45947266 435.31054688 C175.31502521 444.79880305 166.01765991 453.5387044 155.375 461.3125 C154.22394983 462.17056152 153.07290823 463.02863451 151.921875 463.88671875 C143.73224019 469.92427396 135.22961724 475.30707302 126.375 480.3125 C125.66778809 480.7146875 124.96057617 481.116875 124.23193359 481.53125 C101.09654164 494.5566741 75.92537591 503.30551461 49.9375 508.625 C49.21860596 508.77235596 48.49971191 508.91971191 47.7590332 509.0715332 C33.08339502 511.86090125 18.55831162 512.66142619 3.64770508 512.62817383 C0.70811513 512.6250221 -2.2304558 512.64854926 -5.16992188 512.67382812 C-18.54306192 512.71848737 -31.43916711 511.51301542 -44.625 509.3125 C-46.33055054 509.03031616 -46.33055054 509.03031616 -48.07055664 508.74243164 C-91.33802759 500.97044532 -132.38793216 480.98345309 -165.625 452.3125 C-166.37007813 451.67828125 -167.11515625 451.0440625 -167.8828125 450.390625 C-181.38779833 438.57948485 -194.05918743 425.82889772 -204.625 411.3125 C-205.48149066 410.16255169 -206.33826433 409.01281411 -207.1953125 407.86328125 C-213.23534209 399.67315742 -218.61867614 391.16870382 -223.625 382.3125 C-224.0271875 381.60528809 -224.429375 380.89807617 -224.84375 380.16943359 C-237.8691741 357.03404164 -246.61801461 331.86287591 -251.9375 305.875 C-252.08485596 305.15610596 -252.23221191 304.43721191 -252.3840332 303.6965332 C-255.35789088 288.05024391 -255.99800362 272.57681954 -255.9375 256.6875 C-255.93534485 255.66959381 -255.9331897 254.65168762 -255.93096924 253.60293579 C-255.88129854 238.99386477 -255.63040191 224.66174147 -252.625 210.3125 C-252.42632324 209.33764648 -252.22764648 208.36279297 -252.02294922 207.35839844 C-241.90232806 158.9765226 -219.9858123 114.98821731 -185.625 79.3125 C-184.99287598 78.65314453 -184.36075195 77.99378906 -183.70947266 77.31445312 C-174.56502521 67.82619695 -165.26765991 59.0862956 -154.625 51.3125 C-153.47394983 50.45443848 -152.32290823 49.59636549 -151.171875 48.73828125 C-142.98224019 42.70072604 -134.47961724 37.31792698 -125.625 32.3125 C-124.91778809 31.9103125 -124.21057617 31.508125 -123.48193359 31.09375 C-100.34654164 18.0683259 -75.17537591 9.31948539 -49.1875 4 C-48.46860596 3.85264404 -47.74971191 3.70528809 -47.0090332 3.5534668 C-31.36274391 0.57960912 -15.88931954 -0.06050362 0 0 Z " fill="#FEF2B7" transform="translate(255.625,-0.3125)"/>
<path d="M0 0 C3.63614014 2.49984634 4.77563041 4.00903433 5.75 8.3125 C4.68819632 13.53303475 1.72653778 16.34000753 -2 20 C-0.60961241 23.13349687 1.0074226 25.25516164 3.42947388 27.66998291 C4.49378128 28.73841431 4.49378128 28.73841431 5.57958984 29.82843018 C6.74699707 30.98505157 6.74699707 30.98505157 7.93798828 32.16503906 C8.75758026 32.9849231 9.57717224 33.80480713 10.42160034 34.64953613 C13.13312432 37.35966624 15.85166492 40.06264248 18.5703125 42.765625 C20.4511917 44.64277429 22.33167487 46.520312 24.2116394 48.39837646 C28.65582026 52.83634406 33.10507422 57.26918925 37.55617607 61.70021415 C42.62415976 66.74583409 47.68645771 71.79714216 52.74828744 76.84893465 C63.15921229 87.23896097 73.57725506 97.62183072 84 108 C84.47050781 107.59007812 84.94101562 107.18015625 85.42578125 106.7578125 C86.04839844 106.21898437 86.67101562 105.68015625 87.3125 105.125 C87.92738281 104.59132813 88.54226563 104.05765625 89.17578125 103.5078125 C91.77016059 101.36342186 93.49170192 100.06629975 96.875 99.625 C100.8473057 100.10167668 102.33317132 101.0283909 105 104 C106.04467587 107.59107331 106.55652935 109.80812697 104.94839478 113.25213623 C102.25811288 117.04629963 99.09658297 120.23176908 95.82568359 123.52832031 C94.73480438 124.63891312 94.73480438 124.63891312 93.62188721 125.77194214 C91.21994718 128.21321521 88.81011413 130.64647187 86.3984375 133.078125 C85.57394733 133.91076622 84.74945717 134.74340744 83.89998245 135.60128021 C79.53842894 140.00449081 75.17039568 144.40115957 70.79736328 148.79296875 C66.28446309 153.32803087 61.79539969 157.88595057 57.3112545 162.44942093 C53.85523581 165.95772228 50.38156959 169.44814127 46.90291214 172.93398285 C45.24001931 174.60661444 43.58388654 176.28599537 41.93476486 177.97220612 C39.62519446 180.33047306 37.29164059 182.66220123 34.95068359 184.98925781 C34.27709808 185.68846344 33.60351257 186.38766907 32.90951538 187.10806274 C28.77131478 191.15750854 25.74908401 192.80427642 19.9333744 193.20472336 C18 193 18 193 15.5 191.1875 C13.00196346 187.54453005 12.33984005 185.45607969 13 181 C14.72486192 178.80702152 16.5649586 176.87261329 18.56640625 174.9296875 C20.23776885 173.14055949 20.23776885 173.14055949 19.77645206 171.08921528 C18.87683846 168.66860675 17.83471597 167.46241563 16.01036072 165.64286804 C15.37265747 164.99959564 14.73495422 164.35632324 14.07792664 163.69355774 C13.3740834 162.99892929 12.67024017 162.30430084 11.94506836 161.58862305 C11.20674774 160.84825806 10.46842712 160.10789307 9.70773315 159.34509277 C7.25896702 156.89331293 4.79960625 154.45246242 2.33984375 152.01171875 C0.63349627 150.30842963 -1.07226043 148.60454847 -2.77745056 146.90010071 C-6.3584072 143.32375183 -9.94422287 139.75237419 -13.53393555 136.18481445 C-18.12147305 131.62545244 -22.70039106 127.05755971 -27.27610111 122.48633099 C-31.65097285 118.11663564 -36.03051595 113.75163368 -40.41015625 109.38671875 C-41.65482509 108.144871 -41.65482509 108.144871 -42.92463875 106.87793541 C-45.29362492 104.51587761 -47.66594608 102.15722204 -50.03930664 99.79956055 C-50.72898026 99.11100479 -51.41865387 98.42244904 -52.12922668 97.71302795 C-56.59651095 93.28454382 -61.21924779 89.08781613 -66 85 C-66.49854492 85.44102051 -66.99708984 85.88204102 -67.51074219 86.33642578 C-75.13148789 93.07785467 -75.13148789 93.07785467 -80 92.875 C-83.54211639 91.84188272 -84.86555862 91.0040286 -87 88 C-88.1875 84.75 -88.1875 84.75 -88 81 C-86.70950222 79.15130615 -86.70950222 79.15130615 -84.94883728 77.24121094 C-84.30775969 76.54088745 -83.66668209 75.84056396 -83.0061779 75.11901855 C-82.34413919 74.41974243 -81.68210049 73.72046631 -81 73 C-80.40984163 72.3764563 -79.81968327 71.7529126 -79.21164131 71.11047363 C-77.36612187 69.188964 -75.50193616 67.28748951 -73.63110352 65.390625 C-72.93092102 64.67744614 -72.23073853 63.96426727 -71.50933838 63.22947693 C-64.27079744 55.86537002 -56.99802269 48.53497352 -49.72241211 41.20751953 C-46.27361377 37.7318451 -42.83618873 34.24547343 -39.40795898 30.74951172 C-35.25482328 26.51457047 -31.08250812 22.29945912 -26.89573479 18.09777832 C-25.30722842 16.49701874 -23.72562851 14.88937449 -22.15118599 13.27478027 C-19.95187466 11.02215657 -17.7287919 8.79590324 -15.49829102 6.57421875 C-14.53402443 5.56916542 -14.53402443 5.56916542 -13.55027771 4.54380798 C-9.01471418 0.09998938 -6.35070035 -0.92180903 0 0 Z " fill="#FD8900" transform="translate(266,123)"/>
<path d="M0 0 C3.10550308 1.48441172 5.23356746 2.98888317 7.66699219 5.43994141 C8.71762848 6.49080429 8.71762848 6.49080429 9.78948975 7.56289673 C10.53442688 8.31815643 11.27936401 9.07341614 12.046875 9.8515625 C12.81807678 10.62559418 13.58927856 11.39962585 14.3838501 12.19711304 C16.84396856 14.66841923 19.29703848 17.14659183 21.75 19.625 C23.41750894 21.30254052 25.08547232 22.97962945 26.75390625 24.65625 C30.84122472 28.76561022 34.92237281 32.88102589 39 37 C34.89804746 41.88001183 30.65019717 46.51112361 26.15942383 51.03344727 C25.50322052 51.69782806 24.84701721 52.36220886 24.17092896 53.04672241 C22.01930843 55.22295803 19.8637414 57.39521499 17.70703125 59.56640625 C16.96501654 60.31374464 16.22300182 61.06108303 15.45850182 61.83106804 C11.53277107 65.78342194 7.60344255 69.73216278 3.67163086 73.6784668 C0.43409165 76.92935199 -2.79602238 80.18734842 -6.01977539 83.4519043 C-9.93180062 87.4134214 -13.85612084 91.36235868 -17.78942299 95.30274773 C-19.27788735 96.79789156 -20.76212134 98.29726023 -22.24184227 99.80105782 C-40.68523958 118.52739987 -40.68523958 118.52739987 -51.07421875 119.7265625 C-60.83851175 119.4521067 -66.62218668 118.29722901 -73.8125 111.6875 C-79.83077755 105.28536875 -81.49701904 97.41430456 -81.32477856 88.80107689 C-80.32463785 80.17528877 -74.43010108 73.70742973 -68.45581055 67.88818359 C-67.3428083 66.77408615 -67.3428083 66.77408615 -66.20732117 65.63748169 C-63.77879404 63.21240721 -61.33310962 60.80547832 -58.88671875 58.3984375 C-57.18883378 56.7098888 -55.49205741 55.02022469 -53.79634094 53.32949829 C-49.35053645 48.90269891 -44.88991896 44.49112784 -40.42596436 40.0826416 C-35.86536406 35.57337309 -31.31904972 31.0497509 -26.77148438 26.52734375 C-17.86152161 17.67085425 -8.93630814 8.82990198 0 0 Z " fill="#FEC201" transform="translate(186,270)"/>
<path d="M0 0 C0.79129303 -0.01007584 1.58258606 -0.02015167 2.39785767 -0.03053284 C4.99691157 -0.05887499 7.59538153 -0.06488297 10.19458008 -0.06811523 C12.01671072 -0.07776817 13.83883908 -0.08786152 15.66096497 -0.09837341 C19.47634259 -0.11630211 23.29151684 -0.12189804 27.10693359 -0.12011719 C31.96788429 -0.11981305 36.82751314 -0.16070985 41.68815136 -0.21243382 C45.45200952 -0.24599178 49.21555514 -0.25186878 52.9795475 -0.25028801 C54.76992649 -0.25380095 56.56031597 -0.26691619 58.35054588 -0.29028511 C68.95152145 -0.41568158 77.85642088 -0.12573215 86.77661133 6.43579102 C95.25666971 15.16114667 96.16002956 22.58587573 96.21411133 34.43579102 C96.24698242 35.70680664 96.27985352 36.97782227 96.3137207 38.28735352 C96.32081055 39.51196289 96.32790039 40.73657227 96.33520508 41.99829102 C96.35538696 43.67084961 96.35538696 43.67084961 96.37597656 45.37719727 C95.54102878 49.6379817 94.26456254 50.83763947 90.77661133 53.43579102 C87.09375777 54.18300017 83.46325931 54.11884904 79.71582031 54.08276367 C78.59985474 54.09152527 77.48388916 54.10028687 76.33410645 54.10931396 C72.6465768 54.1313147 68.96024684 54.11675231 65.27270508 54.09985352 C62.711103 54.10322118 60.14950248 54.10807337 57.58790588 54.11434937 C52.22038071 54.1217215 46.85328555 54.11147965 41.48583984 54.08764648 C35.28313616 54.06042231 29.08125389 54.06926106 22.87857002 54.09677851 C16.90642998 54.12221095 10.93454494 54.11950906 4.96235847 54.10486984 C2.42298327 54.10153053 -0.11641285 54.10564125 -2.65576363 54.11726761 C-6.20174154 54.12994063 -9.74613274 54.11064648 -13.29199219 54.08276367 C-14.34509079 54.09288483 -15.39818939 54.10300598 -16.48320007 54.11343384 C-23.57531953 54.00991112 -23.57531953 54.00991112 -26.8732605 51.08828735 C-29.56272276 45.80450102 -28.83477652 39.98906672 -28.78588867 34.18579102 C-28.80973633 32.9005957 -28.83358398 31.61540039 -28.8581543 30.29125977 C-28.84387912 21.01239458 -27.29492576 15.14600059 -21.23120117 8.13110352 C-20.60987305 7.61290039 -19.98854492 7.09469727 -19.34838867 6.56079102 C-18.7322168 6.02711914 -18.11604492 5.49344727 -17.48120117 4.94360352 C-11.76809184 1.12827445 -6.80942384 -0.01264569 0 0 Z " fill="#FFD100" transform="translate(311.223388671875,335.564208984375)"/>
<path d="M0 0 C2.63016161 2.1727422 4.47336894 3.94673788 6 7 C6.07092842 9.2072923 6.08415025 11.41667452 6.0625 13.625 C6.05347656 14.81351563 6.04445312 16.00203125 6.03515625 17.2265625 C6.02355469 18.14179688 6.01195312 19.05703125 6 20 C6.92039063 20.27457031 7.84078125 20.54914063 8.7890625 20.83203125 C12.97975714 22.35638368 15.52108417 24.29431696 18 28 C18.6875 31.5625 18.6875 31.5625 18 35 C16.00859161 37.92488107 14.58770642 39.66988282 11.02734375 40.41015625 C6.48672555 40.6053604 4.47320315 39.60490236 1 37 C-3.02493093 36.27048127 -6.00458849 36.37786781 -9.5 38.5625 C-11.58392818 41.94888329 -11.55802097 44.09385318 -11 48 C-9.69138543 50.55985074 -9.69138543 50.55985074 -7 52 C-5.1064862 52.28016369 -5.1064862 52.28016369 -3 52.375 C4.68935778 52.93422602 12.37235609 56.71801305 17.5625 62.4375 C23.29693293 70.25256789 24.13607825 77.37610634 23 87 C20.78716474 93.97657785 15.84613853 98.80426241 10 103 C8.90171875 103.37898438 8.90171875 103.37898438 7.78125 103.765625 C7.1934375 104.17296875 6.605625 104.5803125 6 105 C5.48033254 108.17898341 5.48033254 108.17898341 5.5625 111.8125 C5.24902344 118.60449219 5.24902344 118.60449219 2.875 122.375 C-0.75950603 124.42928602 -2.88360946 124.59874771 -7 124 C-10.1850357 122.23984869 -10.83296972 121.50109084 -12 118 C-12.0252303 115.87504766 -12.04548028 113.75003397 -12.0625 111.625 C-12.25203565 106.94999058 -12.25203565 106.94999058 -14.703125 103.2109375 C-16.76162486 102.0292061 -18.85855738 101.02092032 -21 100 C-23.5625 97.625 -23.5625 97.625 -25 95 C-25 91.11417724 -24.53567796 88.83565762 -22.4375 85.5625 C-18.98711912 83.35071739 -15.99714619 83.27551725 -12 84 C-10.66666667 85 -9.33333333 86 -8 87 C-4.23559994 87.61171501 -1.04162503 87.41665001 2.5 86 C4.52996308 83.29338257 4.39862042 81.2471584 4.3359375 77.9375 C4.07913353 75.68060065 4.07913353 75.68060065 2 73 C-1.03303462 72.1540541 -1.03303462 72.1540541 -4.5625 71.625 C-13.81826006 69.77763745 -20.40598848 67.09691715 -25.78125 59.09375 C-29.74019126 52.29249193 -31.14200835 45.88424995 -30 38 C-27.6579275 30.56175123 -23.33887032 25.43594901 -17 21 C-16.2678125 20.74863281 -15.535625 20.49726563 -14.78125 20.23828125 C-14.1934375 19.82964844 -13.605625 19.42101562 -13 19 C-12.48033254 15.82101659 -12.48033254 15.82101659 -12.5625 12.1875 C-12.24902344 5.39550781 -12.24902344 5.39550781 -9.875 1.625 C-6.17647925 -0.46546825 -4.18571183 -0.74744854 0 0 Z " fill="#FD7902" transform="translate(135,123)"/>
<path d="M0 0 C3.03739302 1.35754589 5.11935473 2.87772991 7.45166016 5.24047852 C8.43255112 6.22643761 8.43255112 6.22643761 9.43325806 7.23231506 C10.12817352 7.94069016 10.82308899 8.64906525 11.5390625 9.37890625 C12.26112885 10.10617416 12.98319519 10.83344208 13.72714233 11.58274841 C16.03122694 13.90463582 18.32851132 16.23310139 20.625 18.5625 C22.92949133 20.89458572 25.23541392 23.22520945 27.54428101 25.55296326 C28.98049156 27.00145538 30.41402086 28.45261176 31.84463501 29.90663147 C32.492258 30.56078537 33.13988098 31.21493927 33.80712891 31.88891602 C34.37686432 32.46690445 34.94659973 33.04489288 35.53359985 33.64039612 C36.97518714 35.10433378 36.97518714 35.10433378 39 36 C37.41332422 39.90285767 34.86649519 42.33520982 31.875 45.25 C30.96492188 46.14203125 30.05484375 47.0340625 29.1171875 47.953125 C28.41851562 48.62859375 27.71984375 49.3040625 27 50 C21.93288701 45.75789864 17.18776629 41.32282911 12.53515625 36.6328125 C11.85698349 35.95322479 11.17881073 35.27363708 10.48008728 34.57345581 C8.33850859 32.42632998 6.20045471 30.27573373 4.0625 28.125 C2.60114411 26.65862227 1.13955774 25.1924742 -0.32226562 23.7265625 C-3.88417935 20.15369 -7.44293865 16.57770316 -11 13 C-9.30413874 9.36696916 -7.26199512 7.05450954 -4.375 4.25 C-3.55773437 3.45078125 -2.74046875 2.6515625 -1.8984375 1.828125 C-0.95871094 0.92320312 -0.95871094 0.92320312 0 0 Z " fill="#FEA302" transform="translate(211,245)"/>
<path d="M0 0 C3.09383825 1.1839881 3.78426483 2.28572442 6 5 C6.64109923 8.24809687 6.12597922 10.90872353 5 14 C2.07370716 17.91612265 -1.37018083 21.17082946 -4.9375 24.5 C-6.33645508 25.85738281 -6.33645508 25.85738281 -7.76367188 27.2421875 C-16.29434923 35.45828456 -16.29434923 35.45828456 -23.0234375 35.3359375 C-25 35 -25 35 -27.5 33 C-29.45834293 29.08331413 -30.2428791 26.201667 -29 22 C-26.33585999 18.30679017 -23.25422176 15.14514482 -19.98510742 11.99707031 C-18.43902182 10.50147213 -16.9371162 8.96983421 -15.43554688 7.4296875 C-14.45811111 6.46113196 -13.47836501 5.49490123 -12.49609375 4.53125 C-11.16856079 3.22510742 -11.16856079 3.22510742 -9.81420898 1.89257812 C-6.29127357 -0.47662421 -4.16571755 -0.42093911 0 0 Z " fill="#FEB202" transform="translate(401,283)"/>
</svg>
